<svg xmlns="http://www.w3.org/2000/svg" viewBox="0 0 278.6 34.1"><title>logo2@_v2</title><g id="Layer_2" data-name="Layer 2"><g id="Layer_1-2" data-name="Layer 1"><path d="M11.11,34.1c-2.34,0-6.56-.94-6.56-5.46,0-2.74.24-4.9.24-7.3,0-2.05-.81-3.76-4.79-4V16c4-.23,4.79-1.56,4.79-4s-.24-3.95-.24-6.38C4.55,1.14,8.61.11,11.11,0l0,1.1C8,1.63,7.45,3.3,7.45,5.2c0,2.43.28,3.84.28,6.19A5.38,5.38,0,0,1,3.18,16.6v.15C5.55,17.28,7.73,19,7.73,22c0,2.47-.28,4.48-.28,6.8,0,2.05.68,3.68,3.7,4.21Z"/><path d="M35.3,2.62c5.67,0,9.26,1.06,11.75,3.3a10.72,10.72,0,0,1,3.42,8.13,12.23,12.23,0,0,1-5,10.26c-3.06,2.16-7,3-11.91,3H24.11V26.24c3.46-.3,3.62-.57,3.62-3.68V7.41c0-3.27-.48-3.42-3.62-3.73V2.62ZM31.23,22.26c0,2.84,1.29,3.64,4.31,3.64,7.25,0,11-4.67,11-11.32,0-4.14-1.49-7.29-4.67-9.11A13.37,13.37,0,0,0,34.94,4a6,6,0,0,0-3.18.53c-.37.23-.53.65-.53,2.13Z"/><path d="M63,10.18a8.41,8.41,0,0,1,8.77,8.51A8.75,8.75,0,0,1,63,27.76a8.58,8.58,0,0,1-8.94-8.47A9,9,0,0,1,63,10.18Zm-.48,1.29c-2.46,0-4.67,2.24-4.67,6.65,0,4.82,2.25,8.31,5.55,8.31,2.5,0,4.59-1.71,4.59-6.91C68,15.08,66.09,11.47,62.55,11.47Z"/><path d="M96.52,27.31V26.24c2.37-.22,2.65-.38,2.65-3V16.86c0-2.69-1-4.4-3.46-4.4a7.53,7.53,0,0,0-4.47,2,14.91,14.91,0,0,1,.12,1.64v7.36c0,2.4.37,2.59,2.58,2.81v1.07H85.33V26.24c2.49-.22,2.85-.38,2.85-2.88V16.82c0-2.81-.92-4.36-3.38-4.36a7.86,7.86,0,0,0-4.42,2v8.93c0,2.5.28,2.66,2.57,2.88v1.07H74.3V26.24c2.65-.22,2.9-.38,2.9-2.88V15.5c0-2.44-.17-2.59-2.42-3v-.95a22.5,22.5,0,0,0,5.6-1.52v3.08a27.74,27.74,0,0,1,3-2,5.7,5.7,0,0,1,3.18-1,4.68,4.68,0,0,1,4.39,3.11c1.13-.83,2.17-1.48,3.18-2.12a6.28,6.28,0,0,1,3.18-1c3.14,0,5.07,2.13,5.07,5.85v7.33c0,2.54.24,2.66,2.54,2.88v1.07Z"/><path d="M107.26,27.31V26.24c2.54-.22,2.82-.41,2.82-3V15.42c0-2.36-.12-2.51-2.54-2.89v-.91a27.16,27.16,0,0,0,5.72-1.52V23.24c0,2.59.28,2.78,2.9,3v1.07Zm4.19-20.93a2.15,2.15,0,0,1-2.14-2,2.12,2.12,0,0,1,2.18-2.09,2,2,0,0,1,2.05,2.09A2.08,2.08,0,0,1,111.45,6.38Z"/><path d="M129.76,27.31V26.24c2.33-.22,2.58-.49,2.58-3.07V16.9c0-2.66-1-4.44-3.67-4.44a7.19,7.19,0,0,0-4.46,2v8.89c0,2.62.24,2.7,2.61,2.92v1.07h-8.69V26.24c2.65-.26,2.9-.41,2.9-2.92V15.5c0-2.47-.29-2.59-2.46-2.93v-1a23.51,23.51,0,0,0,5.64-1.52v3c.8-.53,1.69-1.1,2.73-1.74a6.38,6.38,0,0,1,3.34-1.14c3.22,0,5.24,2.24,5.24,5.92v7.22c0,2.58.24,2.7,2.57,2.92v1.07Z"/><path d="M153.38,27.76a3,3,0,0,1-1.89-.72,3.47,3.47,0,0,1-1-1.71c-1.61,1-3.59,2.43-4.83,2.43a4.8,4.8,0,0,1-4.91-4.67c0-1.86,1.08-3.07,3.3-3.8,2.45-.79,5.47-1.78,6.36-2.47v-.75c0-2.7-1.45-4.26-3.55-4.26a2.39,2.39,0,0,0-1.89.88,7.87,7.87,0,0,0-1.08,2.46,1.12,1.12,0,0,1-1.17.88A1.88,1.88,0,0,1,141,14.36c0-.54.52-1,1.33-1.52a17.1,17.1,0,0,1,5.79-2.66,5.79,5.79,0,0,1,3.38,1,5.14,5.14,0,0,1,2.06,4.41v7.33c0,1.75.68,2.28,1.41,2.28a3.28,3.28,0,0,0,1.44-.42l.41,1.06Zm-2.93-9.61c-.89.42-2.82,1.22-3.75,1.6-1.53.65-2.45,1.37-2.45,2.77a2.85,2.85,0,0,0,2.9,2.93,5.53,5.53,0,0,0,3.3-1.37Z"/><path d="M178.74,2.62c2.86,0,5.15.49,6.8,1.63a6.3,6.3,0,0,1,2.66,5.4c0,5.54-5,7.78-8.85,7.78a9,9,0,0,1-1.09-.07l-2.78-.69V22.6c0,3.19.28,3.26,4,3.64v1.07H168.36V26.24c3.46-.34,3.62-.57,3.62-3.72V7.44c0-3.38-.44-3.45-3.62-3.76V2.62Zm-3.26,12.72a7.61,7.61,0,0,0,2.94.5c2.7,0,6-1.29,6-6.08,0-4.18-2.9-5.85-6.28-5.85a3.75,3.75,0,0,0-2.26.46c-.32.26-.44.72-.44,1.74Z"/><path d="M203.13,27.76a3,3,0,0,1-1.89-.72,3.57,3.57,0,0,1-1-1.71c-1.61,1-3.58,2.43-4.83,2.43a4.8,4.8,0,0,1-4.91-4.67c0-1.86,1.09-3.07,3.3-3.8,2.46-.79,5.48-1.78,6.36-2.47v-.75c0-2.7-1.44-4.26-3.54-4.26a2.38,2.38,0,0,0-1.89.88,8.09,8.09,0,0,0-1.09,2.46,1.11,1.11,0,0,1-1.16.88,1.89,1.89,0,0,1-1.78-1.67c0-.54.53-1,1.33-1.52a17.16,17.16,0,0,1,5.8-2.66,5.81,5.81,0,0,1,3.38,1,5.13,5.13,0,0,1,2,4.41v7.33c0,1.75.69,2.28,1.41,2.28a3.28,3.28,0,0,0,1.45-.42l.4,1.06Zm-2.94-9.61c-.88.42-2.81,1.22-3.74,1.6-1.53.65-2.45,1.37-2.45,2.77a2.85,2.85,0,0,0,2.89,2.93,5.48,5.48,0,0,0,3.3-1.37Z"/><path d="M223.26,23.89c-1.77,2.2-4.47,3.87-6.89,3.87a7.87,7.87,0,0,1-8.13-8,8.88,8.88,0,0,1,4.07-7.45,11.1,11.1,0,0,1,6.12-2.16,6.24,6.24,0,0,1,3.74,1c.56.42.64.69.64,1.11a1.94,1.94,0,0,1-1.44,1.7c-.21,0-.37-.07-.77-.38A6.2,6.2,0,0,0,216.53,12c-2.65,0-5,2.13-5,6.08,0,5.28,3.79,7,6.12,7a6.64,6.64,0,0,0,4.91-2.09Z"/><path d="M236.34,27.31V26.24c2.33-.22,2.65-.41,2.65-2.92V17.09c0-3.15-1.28-4.75-4-4.71a5.87,5.87,0,0,0-4.27,2v9c0,2.47.32,2.7,2.74,2.92v1.07H224.7V26.24c2.34-.19,2.86-.38,2.86-2.92V5c0-2-.12-2.5-2.82-2.73v-1a26.24,26.24,0,0,0,6-1.29V13c1.45-1.37,3.67-2.77,5.84-2.77,3.3,0,5.59,1.94,5.59,6.49v6.69c0,2.5.33,2.69,2.66,2.88v1.07Z"/><path d="M246.52,27.31V26.24c2.57-.22,2.9-.41,2.9-2.92V5.13c0-2.32-.2-2.55-2.78-2.85v-1a29.94,29.94,0,0,0,6-1.29V23.32c0,2.51.24,2.7,2.86,2.92v1.07Z"/><path d="M267.45,0c2.37,0,6.6,1,6.6,5.43,0,2.77-.28,4.29-.28,6.69,0,2,.84,3.79,4.83,4v1.29c-4,.27-4.83,1.6-4.83,4s.28,4.56.28,7c0,4.52-4.15,5.66-6.6,5.69V33c3.1-.53,3.7-2.16,3.7-4.14,0-2.43-.32-4.44-.32-6.79a5.46,5.46,0,0,1,4.55-5.25v-.15a5.48,5.48,0,0,1-4.55-5.2c0-2.2.32-3.87.32-6.19,0-2.05-.68-3.65-3.7-4.18Z"/></g></g></svg>