<?xml version="1.0" encoding="utf-8"?>
<!-- Generator: Adobe Illustrator 23.0.1, SVG Export Plug-In . SVG Version: 6.00 Build 0)  -->
<svg version="1.1" id="Layer_1" xmlns="http://www.w3.org/2000/svg" xmlns:xlink="http://www.w3.org/1999/xlink" x="0px" y="0px"
	 viewBox="0 0 313 223" style="enable-background:new 0 0 313 223;" xml:space="preserve">
<g>
	<g>
	</g>
</g>
<g>
	<g>
		<path d="M28.3,127.1c-2.3,0-6.6-0.9-6.6-5.5c0-2.7,0.2-4.9,0.2-7.3c0-2.1-0.8-3.8-4.8-4V109c4-0.2,4.8-1.6,4.8-4
			c0-2.5-0.2-3.9-0.2-6.4c0-4.5,4.1-5.5,6.6-5.7l0,1.1c-3.1,0.5-3.7,2.2-3.7,4.1c0,2.4,0.3,3.8,0.3,6.2c0,2.7-2.1,4.7-4.5,5.2v0.2
			c2.4,0.5,4.5,2.2,4.5,5.2c0,2.5-0.3,4.5-0.3,6.8c0,2.1,0.7,3.7,3.7,4.2L28.3,127.1z"/>
		<path d="M52.5,95.6c5.7,0,9.3,1.1,11.8,3.3c2,1.8,3.4,4.5,3.4,8.1c0,4.4-1.9,8.1-5,10.3c-3.1,2.2-7,3-11.9,3h-9.4v-1.1
			c3.5-0.3,3.6-0.6,3.6-3.7v-15.2c0-3.3-0.5-3.4-3.6-3.7v-1.1H52.5z M48.5,115.2c0,2.8,1.3,3.6,4.3,3.6c7.2,0,10.9-4.7,10.9-11.3
			c0-4.1-1.5-7.3-4.7-9.1c-1.9-1.1-4.2-1.5-6.9-1.5c-1.8,0-2.8,0.2-3.2,0.5c-0.4,0.2-0.5,0.6-0.5,2.1V115.2z"/>
		<path d="M80.1,103.1c5,0,8.8,3.6,8.8,8.5c0,6.2-4.8,9.1-8.8,9.1c-5.6,0-8.9-4.2-8.9-8.5C71.1,106.1,76.2,103.1,80.1,103.1z
			 M79.6,104.4c-2.5,0-4.7,2.2-4.7,6.6c0,4.8,2.3,8.3,5.6,8.3c2.5,0,4.6-1.7,4.6-6.9C85,108,83.1,104.4,79.6,104.4z"/>
		<path d="M113.8,120.3v-1.1c2.4-0.2,2.7-0.4,2.7-3v-6.3c0-2.7-1-4.4-3.5-4.4c-1.5,0-2.9,0.8-4.5,2c0,0.5,0.1,0.9,0.1,1.6v7.4
			c0,2.4,0.4,2.6,2.6,2.8v1.1h-8.6v-1.1c2.5-0.2,2.9-0.4,2.9-2.9v-6.5c0-2.8-0.9-4.4-3.4-4.4c-1.6,0-3.2,1-4.4,2v8.9
			c0,2.5,0.3,2.7,2.6,2.9v1.1h-8.7v-1.1c2.7-0.2,2.9-0.4,2.9-2.9v-7.9c0-2.4-0.2-2.6-2.4-3v-0.9c1.9-0.3,3.8-0.8,5.6-1.5
			c0,0.9,0,2.2,0,3.1c0.8-0.6,1.7-1.3,3-2c1-0.6,1.9-1,3.2-1c1.9,0,3.6,1.1,4.4,3.1c1.1-0.8,2.2-1.5,3.2-2.1c0.9-0.5,2-1,3.2-1
			c3.1,0,5.1,2.1,5.1,5.8v7.3c0,2.5,0.2,2.7,2.5,2.9v1.1H113.8z"/>
		<path d="M124.5,120.3v-1.1c2.5-0.2,2.8-0.4,2.8-3v-7.8c0-2.4-0.1-2.5-2.5-2.9v-0.9c2.1-0.3,4-0.8,5.7-1.5c0,1.6,0,3.2,0,4.8v8.4
			c0,2.6,0.3,2.8,2.9,3v1.1H124.5z M128.7,99.3c-1.1,0-2.1-0.9-2.1-2c0-1.2,1-2.1,2.2-2.1c1.1,0,2.1,0.9,2.1,2.1
			C130.8,98.4,129.9,99.3,128.7,99.3z"/>
		<path d="M147,120.3v-1.1c2.3-0.2,2.6-0.5,2.6-3.1v-6.3c0-2.7-1-4.4-3.7-4.4c-1.7,0-3.2,0.9-4.5,2v8.9c0,2.6,0.2,2.7,2.6,2.9v1.1
			h-8.7v-1.1c2.7-0.3,2.9-0.4,2.9-2.9v-7.8c0-2.5-0.3-2.6-2.5-2.9v-1c2-0.3,3.9-0.8,5.6-1.5c0,0.9,0,2.1,0,3
			c0.8-0.5,1.7-1.1,2.7-1.7c1.1-0.7,2.2-1.1,3.3-1.1c3.2,0,5.2,2.2,5.2,5.9v7.2c0,2.6,0.2,2.7,2.6,2.9v1.1H147z"/>
		<path d="M170.6,120.7c-0.6,0-1.5-0.3-1.9-0.7c-0.5-0.5-0.8-1-1-1.7c-1.6,1-3.6,2.4-4.8,2.4c-2.9,0-4.9-2.2-4.9-4.7
			c0-1.9,1.1-3.1,3.3-3.8c2.5-0.8,5.5-1.8,6.4-2.5V109c0-2.7-1.4-4.3-3.5-4.3c-0.9,0-1.5,0.4-1.9,0.9c-0.4,0.5-0.7,1.4-1.1,2.5
			c-0.2,0.6-0.6,0.9-1.2,0.9c-0.8,0-1.8-0.8-1.8-1.7c0-0.5,0.5-1,1.3-1.5c1.2-0.8,3.5-2.2,5.8-2.7c1.2,0,2.5,0.3,3.4,1
			c1.4,1.1,2.1,2.4,2.1,4.4v7.3c0,1.7,0.7,2.3,1.4,2.3c0.5,0,1-0.2,1.4-0.4l0.4,1.1L170.6,120.7z M167.7,111.1
			c-0.9,0.4-2.8,1.2-3.7,1.6c-1.5,0.6-2.5,1.4-2.5,2.8c0,2,1.6,2.9,2.9,2.9c1,0,2.5-0.6,3.3-1.4
			C167.7,115.3,167.7,112.9,167.7,111.1z"/>
		<path d="M196,95.6c2.9,0,5.2,0.5,6.8,1.6c1.6,1.1,2.7,2.9,2.7,5.4c0,5.5-5,7.8-8.9,7.8c-0.4,0-0.8,0-1.1-0.1l-2.8-0.7v5.9
			c0,3.2,0.3,3.3,4,3.6v1.1h-11.1v-1.1c3.5-0.3,3.6-0.6,3.6-3.7v-15.1c0-3.4-0.4-3.5-3.6-3.8v-1.1H196z M192.7,108.3
			c0.5,0.2,1.6,0.5,2.9,0.5c2.7,0,6-1.3,6-6.1c0-4.2-2.9-5.8-6.3-5.8c-1.2,0-2,0.2-2.3,0.5c-0.3,0.3-0.4,0.7-0.4,1.7V108.3z"/>
		<path d="M221.2,120.7c-0.6,0-1.5-0.3-1.9-0.7c-0.5-0.5-0.8-1-1-1.7c-1.6,1-3.6,2.4-4.8,2.4c-2.9,0-4.9-2.2-4.9-4.7
			c0-1.9,1.1-3.1,3.3-3.8c2.5-0.8,5.5-1.8,6.4-2.5V109c0-2.7-1.4-4.3-3.5-4.3c-0.9,0-1.5,0.4-1.9,0.9c-0.4,0.5-0.7,1.4-1.1,2.5
			c-0.2,0.6-0.6,0.9-1.2,0.9c-0.8,0-1.8-0.8-1.8-1.7c0-0.5,0.5-1,1.3-1.5c1.2-0.8,3.5-2.2,5.8-2.7c1.2,0,2.5,0.3,3.4,1
			c1.4,1.1,2.1,2.4,2.1,4.4v7.3c0,1.7,0.7,2.3,1.4,2.3c0.5,0,1-0.2,1.4-0.4l0.4,1.1L221.2,120.7z M218.3,111.1
			c-0.9,0.4-2.8,1.2-3.7,1.6c-1.5,0.6-2.5,1.4-2.5,2.8c0,2,1.6,2.9,2.9,2.9c1,0,2.5-0.6,3.3-1.4
			C218.3,115.3,218.3,112.9,218.3,111.1z"/>
		<path d="M241.6,116.9c-1.8,2.2-4.5,3.9-6.9,3.9c-5.1,0-8.1-3.9-8.1-8c0-3,1.4-5.5,4.1-7.4c2.1-1.6,4.5-2.2,6.1-2.2
			c1.8,0,3.1,0.5,3.7,1c0.6,0.4,0.6,0.7,0.6,1.1c0,0.9-1,1.7-1.4,1.7c-0.2,0-0.4-0.1-0.8-0.4c-1.2-1.1-2.6-1.6-4.1-1.6
			c-2.7,0-5,2.1-5,6.1c0,5.3,3.8,7,6.1,7c1.7,0,3.1-0.4,4.9-2.1L241.6,116.9z"/>
		<path d="M254.6,120.3v-1.1c2.3-0.2,2.7-0.4,2.7-2.9v-6.2c0-3.2-1.3-4.7-4-4.7c-1.5,0-3.1,0.7-4.3,2v9c0,2.5,0.3,2.7,2.7,2.9v1.1
			H243v-1.1c2.3-0.2,2.9-0.4,2.9-2.9V98c0-2-0.1-2.5-2.8-2.7v-1c2.1-0.2,4.5-0.8,6-1.3c0,1.5,0,3.2,0,4.7v8.2
			c1.4-1.4,3.7-2.8,5.8-2.8c3.3,0,5.6,1.9,5.6,6.5v6.7c0,2.5,0.3,2.7,2.7,2.9v1.1H254.6z"/>
		<path d="M264.8,120.3v-1.1c2.6-0.2,2.9-0.4,2.9-2.9V98.1c0-2.3-0.2-2.5-2.8-2.8v-1c2.2-0.2,4.7-0.8,6-1.3c0,1.8,0,3.6,0,5.4v17.9
			c0,2.5,0.2,2.7,2.9,2.9v1.1H264.8z"/>
		<path d="M285.8,93c2.4,0,6.6,0.9,6.6,5.4c0,2.8-0.3,4.3-0.3,6.7c0,2,0.8,3.8,4.8,4v1.3c-3.9,0.3-4.8,1.6-4.8,4
			c0,2.5,0.3,4.6,0.3,7c0,4.5-4.1,5.7-6.6,5.7V126c3.1-0.5,3.7-2.2,3.7-4.1c0-2.4-0.3-4.4-0.3-6.8c0-2.8,2.1-4.7,4.5-5.2v-0.2
			c-2.4-0.5-4.5-2.5-4.5-5.2c0-2.2,0.3-3.9,0.3-6.2c0-2.1-0.7-3.6-3.7-4.2V93z"/>
	</g>
</g>
</svg>
