<?xml version="1.0" encoding="utf-8"?>
<!-- Generator: Adobe Illustrator 23.0.1, SVG Export Plug-In . SVG Version: 6.00 Build 0)  -->
<svg version="1.1" id="Layer_1" xmlns="http://www.w3.org/2000/svg" xmlns:xlink="http://www.w3.org/1999/xlink" x="0px" y="0px"
	 viewBox="0 0 313 223" style="enable-background:new 0 0 313 223;" xml:space="preserve">
<style type="text/css">
	.st0{enable-background:new    ;}
</style>
<g id="Group_1" transform="translate(-797 -78)">
	<g class="st0">
		<path d="M809.2,174.4c-0.6,3.2-2.8,4.6-4.8,3c-1.6-1-3-5.6-3.2-11.2c-0.6-12.4,0.6-22.2,3.6-39.2c0.4-4.4-0.6-19.8-3-23.2
			c7.4,0.2,8,5.4,8.4,10.8c4-6.8,14.4-8.2,19.6-3.8c9.8,8.2,12.4,28.2,10,46l5.2-3.6c0.4-0.2,1.4,0.2,0.4,1c-1.8,1.4-3.8,2.8-6,4.2
			c-2.4,15.8-8.4,29.4-16.4,31.4c-7,1.6-9.4-4.2-7.8-9.6c2-7.2,9.6-13.4,17-18.6c3-17.4,2.4-38.6-6.6-48c-3.6-3.8-10.8-4.4-15.2,2.4
			C812.4,135.6,811.6,163,809.2,174.4z M802.6,169.2c0.2,3.8,1,5.6,1.6,2.2c1.6-13.4,1.4-28.4,1-41.6
			C803,146.6,801.8,152.2,802.6,169.2z M822,186.6c4-2.8,7.8-12,10-23c-6.8,4.8-13.4,10.4-15.4,17.2
			C815.6,184.6,818.2,189.2,822,186.6z"/>
		<path d="M875.8,154.8c-0.6,4.6-3.8,8.4-10,8c-2.2,7.6-6,10.2-10.6,10.4c-7.6,0-13.6-9.2-9.4-22c-2-4.2-1.4-8.2,1-10.8
			c2-2.2,4.8-3.2,7.4-3.2c13.2-0.2,14,14.8,11.8,24.6c5,0.8,8.4-2.4,9-7C875.2,154.4,875.6,154.4,875.8,154.8z M855.6,171.2
			c3.8,1,8-2.2,9.6-8.4c-4.2-0.4-11.2-3.6-15.4-7.4C848,164.8,851.6,170.2,855.6,171.2z M850.8,150.6c3.6,4.6,8.2,10.4,14.6,11.2
			c1.8-8.2,1.8-24.4-10.8-22.6c-2.8,0.4-5,2.4-4.6,4.8C852.6,138,858.8,145.2,850.8,150.6z M852,145c-0.6,1-1.2,2.8-1.2,4.2
			C854.4,146.8,854,142,852,145z"/>
		<path d="M892.2,153.6c1-5.6,2.8-11,5.4-12.4c4-2.2,9.4,1,8.8,10.6c-0.4,6.4-0.8,15.6,0,19.2c2.2,9.6,7-1.4,9.6-16.4
			c0-0.2,0.8-0.4,0.8,0c-1.4,8.2-4.6,23.2-10.4,23.4c-11.2,0-0.8-35.6-8.2-35.6c-2.4,0-4.6,7.2-5.8,15c-0.2,5.6-0.6,15.4-0.2,17.4
			c0.2,1.2,0.4,3.2-2.2,3.2c-6.8,0,1-37.2-4.8-37.2c-3.2,0-5,4.4-6.4,11c-0.6,5.8-1,17.8,0,22.6c0,1.6,0.8,3.4-1.8,3.4
			c-6,0-3.6-34.2-3.8-39.2c0-2.4,5.8-0.2,5.8,0.6c-0.2,2,0,5.2-0.4,9.8c1.4-7.6,4.4-9.4,7.6-9.4C890.6,139.6,892,145.8,892.2,153.6z
			"/>
		<path d="M922,132.6c0,2-1.6,3.4-3.4,3.4s-3.4-1.4-3.4-3.4s1.6-3.6,3.4-3.6S922,130.6,922,132.6z M923.8,172c0.8,3,2,3.6,3.8,1.2
			c2.4-3.4,4.6-13.4,5.4-18.4c0-0.2,0.8-0.4,0.8,0c-1.4,8.2-4.2,23-10,23.2c-10.2,0.2-8.4-33-8.4-37c1-2.6,5.6-1.2,6.8,0.2
			C922.2,141.2,920.8,159.4,923.8,172z"/>
		<path d="M965.6,154.6c0-0.2,0.8-0.4,0.8,0c-1.4,8.2-4.6,23.2-10.4,23.4c-11.2,0-1-36-8.4-36c-3.8,0-7.6,23.4-6,33
			c-1,4.4-4.8,1.2-6.4-3c-3.4-9.6-2.4-29-2.4-31.8c1-2.6,5.6-1.2,6.8,0.2c0,0-0.6,17.8,0.8,29.2c0.2-3.8,1.4-25.6,6.6-28.4
			c4-2.2,9.4,0.8,8.8,10.2c-0.4,6.4-0.6,16,0.2,19.6C958.2,180.6,963,169.6,965.6,154.6z"/>
		<path d="M971.6,132.6c0,2-1.6,3.4-3.4,3.4s-3.4-1.4-3.4-3.4s1.6-3.6,3.4-3.6S971.6,130.6,971.6,132.6z M973.4,172
			c0.8,3,2,3.6,3.8,1.2c2.4-3.4,4.6-13.4,5.4-18.4c0-0.2,0.8-0.4,0.8,0c-1.4,8.2-4.2,23-10,23.2c-10.2,0.2-8.4-33-8.4-37
			c1-2.6,5.6-1.2,6.8,0.2C971.8,141.2,970.4,159.4,973.4,172z"/>
		<path d="M1005.8,171c5.4,3.6,7.4-12,8.4-16c0-0.6,1-0.6,0.8,0c-1,5-3.6,23.2-9.6,21.6c-2.2-0.6-4.6-4-6.8-9.6
			c-0.6-1.8-3.6-12-3.8-11c-0.4,2.8-0.6,15.6-4.6,15.2c-2.4-0.4-4.4-3.4-5.4-5.4c-8-18.4,1.2-78.8,15-79.4c3.6-0.2,4.8,4.4,4.8,8.4
			c-0.2,8.8-2.4,25.4-16.4,51.6c0.4,4.2,0.6,8.6,1.6,13c2.2,9.6,3.6,1.2,4.2-3.2c-1.4,0.4-2.4-0.6-2.2-2.4c0.2-1.8,2-2.4,2.8-1.4
			c1.2-7,4.4-14,8.6-9.6c2.4,2.6,2,8.2-7,12.6c3.2,8.2,6.2,13,9,15.2L1005.8,171z M988.2,144.6c13.4-25.2,15.4-41.4,15.6-50
			c0-5.6-2.2-9.2-5.4-2.8C992,104.4,988.4,129.6,988.2,144.6z M995.2,153.4c0.2,0.2,0.6,1,0.6,1.2c1.8-0.8,7-5.8,4.2-9
			C998.4,143.8,996.8,145.4,995.2,153.4z"/>
		<path d="M1020.8,210.8c-4.8-0.2-8.6-3.2-9.2-9.4c-1-12.2,12.2-27.6,20.2-31.6c0-3.8,0.4-14.8,0-18.6c-2,11-3.4,17.4-8.2,19
			c-11.4,3.8-9.6-25-9.6-29.4c1.8-2.4,5.6-1.2,6.8,0.2c-0.6,4.4-0.6,26.8,3.2,26c4.2-1,6.4-14,7.4-20c0.6-3.8,6.6-0.6,7.2,0
			c0.6,2.2-0.2,16.6-0.2,20.6c4.8-2.6,6.2-5.4,7.8-13c0.2-1,1-1,0.8,0.2c-1.6,7.6-3,11-8.6,13.8C1038,187,1035.8,211.4,1020.8,210.8
			z M1031.8,171.2c-7.4,4-19,17.8-18.6,29c0.2,5.6,3.8,9.2,8.4,9C1031,208.6,1031.6,189.2,1031.8,171.2z"/>
	</g>
	<g class="st0">
		<path d="M978,221.6c1.6-4.6,6.4-12.4,12.8-10.2c3.8,1.4,1.2,11.4-6.6,11.4c-1.4,3.6-1.8,6.2-3,10c7.6-4.2,13.2,7.6,14.2,15
			c5.8-2.8,8-3.6,9.8-10.2c0.2-1,1-0.6,0.8,0.2c-1.8,7-4.6,8.2-10.6,11c2.2,14.8-7.6,45.4-20.2,44.2c-4.4,0-7.2-4.2-8.2-8.2
			c-4.6-18.8,9.6-28.4,21.8-34c-0.8-7.2-1-21.6-8-16.8c-4.4,18-15.4,14.2-12.6,7.8c1-2.2,3.2-5,6.2-7c1.2-4.4,1.8-7.4,3.2-12
			c-1,0-3.8,0.2-6.2,0.4c-4.4,0.4-5.8,12.2-6.6,16c0,0.4-0.8,0.2-0.8-0.4c1-4,2.2-16.2,7.2-16.6L978,221.6z M967.8,284.4
			c5.4,15.6,15.6,2.8,19.6-14.8c1.2-5.6,1.4-11.2,1.6-17.8C977.6,256.2,963.4,268,967.8,284.4z M968.8,242.2c-0.4,0.8-0.8,3,0.6,2.8
			c2.4-0.6,3.6-6.4,4.6-9C971.4,238,969.6,240.2,968.8,242.2z M975.6,193.2c1,6,2,8.6,4.6,14.2v0.6c-0.2,0.2-0.4,0-0.6-0.2
			c-2.4-0.8-10.6-13.6-8.2-14.8C971.6,193,975.4,193,975.6,193.2z M981.6,207.8c-0.2,0.2-0.4,0.4-0.6,0.2c-0.2-0.2-0.2-0.4-0.2-0.6
			c2.8-5.6,3.8-8.2,4.8-14.2c0.2-0.2,3.8-0.2,4-0.2C992.2,194.2,984,207,981.6,207.8z M990.6,212.8c-2-0.8-5,7-6,9
			C989.2,222.6,993.8,214,990.6,212.8z"/>
		<path d="M1018.2,214.6c0,2-1.6,3.4-3.4,3.4s-3.4-1.4-3.4-3.4s1.6-3.6,3.4-3.6S1018.2,212.6,1018.2,214.6z M1020,254
			c0.8,3,2,3.6,3.8,1.2c2.4-3.4,4.6-13.4,5.4-18.4c0-0.2,0.8-0.4,0.8,0c-1.4,8.2-4.2,23-10,23.2c-10.2,0.2-8.4-33-8.4-37
			c1-2.6,5.6-1.2,6.8,0.2C1018.4,223.2,1017,241.4,1020,254z"/>
		<path d="M1033,221.4c1.6,7,6.8,40,12.2,31.8c2.2-3.2,4.4-9,6-14c-3.8-5.2-5.6-9.2-6.6-12.8c-3.4-12.4,9.8-14.6,10-3.2
			c0,5-0.6,10-2.4,15.6c2.2,2.6,6.2,4,9-3.6c0.2-0.2,1-0.2,0.8,0.2c-3,9.2-8.8,6.4-10.2,4.4c-2.8,8.8-5.2,14-7.6,17
			c-8.6,11.2-15.4-16.8-18.8-35.2C1025,220.6,1032.8,220.4,1033,221.4z M1053.6,223.2c-0.4-6.4-5-5.2-5.6-0.8
			c-0.8,5,1,11.6,3.6,15.6C1052.8,234,1053.8,228,1053.6,223.2z"/>
		<path d="M1091.8,236.8c-0.6,4.6-3.8,8.4-10,8c-2.2,7.6-6,10.2-10.6,10.4c-7.6,0-13.6-9.2-9.4-22c-2-4.2-1.4-8.2,1-10.8
			c2-2.2,4.8-3.2,7.4-3.2c13.2-0.2,14,14.8,11.8,24.6c5,0.8,8.4-2.4,9-7C1091.2,236.4,1091.6,236.4,1091.8,236.8z M1071.6,253.2
			c3.8,1,8-2.2,9.6-8.4c-4.2-0.4-11.2-3.6-15.4-7.4C1064,246.8,1067.6,252.2,1071.6,253.2z M1066.8,232.6
			c3.6,4.6,8.2,10.4,14.6,11.2c1.8-8.2,1.8-24.4-10.8-22.6c-2.8,0.4-5,2.4-4.6,4.8C1068.6,220,1074.8,227.2,1066.8,232.6z M1068,227
			c-0.6,1-1.2,2.8-1.2,4.2C1070.4,228.8,1070,224,1068,227z"/>
		<path d="M1090.6,217c0-3.2,0.2-5.8,0.2-6.2c1-2.6,5.6-1.2,6.8,0.2c0,2.2,0,4.2-0.2,6.2c3.6,0,7.2,0,9.8-1c0.6,0.2,0.4,0.6,0,1
			c-2.6,1-6.2,1-9.8,1c-0.4,12.4-1,24.4,1.8,35.8c0.8,3,2,3.6,3.8,1.2c2.4-3.4,4.6-13.4,5.4-18.4c0-0.2,0.8-0.4,0.8,0
			c-1.4,8.2-4.2,23-10,23.2c-7.8,0.2-8.6-19.2-8.6-30.2V218c-4,0-6.6,0-6.6,1.4c-0.4,0.6-1,0.4-1.4,0
			C1082.6,217.2,1085.8,217,1090.6,217z"/>
	</g>
</g>
</svg>
